<?xml version="1.0" encoding="UTF-8"?>
<svg width="386px" height="291px" viewBox="0 0 386 291" version="1.1" xmlns="http://www.w3.org/2000/svg" xmlns:xlink="http://www.w3.org/1999/xlink">
    <!-- Generator: Sketch 55 (78076) - https://sketchapp.com -->
    <title>Group 13</title>
    <desc>Created with Sketch.</desc>
    <g id="Page-1" stroke="none" stroke-width="1" fill="none" fill-rule="evenodd">
        <g id="Orders-Empty" transform="translate(-616.000000, -313.000000)">
            <g id="Group-14" transform="translate(525.000000, 196.000000)">
                <g id="Group-13" transform="translate(84.000000, 112.000000)">
                    <rect id="Rectangle" fill-opacity="0" fill="#FFFFFF" x="0" y="0" width="400" height="312"></rect>
                    <g id="Group-12" transform="translate(7.000000, 16.000000)">
                        <g id="Humaaan" transform="translate(169.000000, 0.000000)">
                            <g id="Head/Front/Airy" transform="translate(77.956184, 43.479378) scale(-1, 1) rotate(12.000000) translate(-77.956184, -43.479378) translate(32.537050, 8.696769)">
                                <g id="Head" stroke-width="1" transform="translate(36.132353, 20.865385)" fill="#B28B67">
                                    <path d="M5.52843326,23.2145084 C2.44519968,19.574003 0.358402693,15.1125134 0.707107694,10.1132863 C1.7118239,-4.29087923 21.6449727,-1.12214635 25.5223828,6.14783947 C29.399793,13.4178253 28.9390558,31.8587472 23.9278487,33.1580964 C21.9293862,33.6762751 17.672067,32.4069449 13.3391092,29.7798214 L16.0588235,49.1346154 L0,49.1346154 L5.52843326,23.2145084 Z"></path>
                                </g>
                                <path d="M52.5016136,18.6343074 C50.3851072,18.2851697 44.6863202,18.0451278 43.6353621,18.0452828 C42.9637503,18.0452828 42.2359276,18.1996286 41.8381516,17.5793009 C41.5124052,17.0713233 41.6317381,16.2121934 41.534521,15.6227038 C41.4216386,14.9379103 41.2612995,14.2619499 41.0991175,13.5876941 C40.6376051,11.6690636 39.9397308,9.8437225 38.9632597,8.1299567 C37.1310326,4.91472812 34.446889,2.39622539 31.0582671,0.930714656 C27.3162542,-0.6874373 23.081859,-1.05796032 19.0567955,-0.729742939 C14.7494491,-0.378590637 10.8503224,1.05174288 6.78348461,2.39777504 C2.9080094,3.68042624 -1.15114926,4.18530452 -5.20447184,3.55893312 C-9.28835712,2.92791274 -12.3741163,0.701365404 -15.8187955,-1.411902 C-19.34518,-3.57537829 -23.3751582,-4.9903702 -27.543974,-4.66509717 C-31.4354217,-4.36136438 -35.0220101,-2.74507201 -38.2398494,-0.585934759 C-41.2505073,1.43419825 -43.7346878,3.86468047 -45.1371939,7.28539357 C-46.6459785,10.9650544 -46.6445962,15.0040807 -44.1634873,18.2560361 C-40.5672233,22.9697831 -33.8908825,24.1887434 -28.3364545,24.0675602 C-25.1236834,23.9976707 -21.9683517,23.4077162 -18.9351174,22.3345787 C-14.8899347,20.9033154 -11.3942665,18.4774821 -7.60986507,16.5092626 C-5.83384876,15.585667 -3.99808927,14.8271098 -2.07386683,14.2807007 C-0.206623128,13.7502531 1.63251516,13.5069569 3.32314016,14.6416159 C5.11159656,15.8419803 6.71421936,17.0211144 8.76023192,17.7725431 C10.7230033,18.4934436 12.8020359,18.8966644 14.8932014,18.880393 C18.9618821,18.84878 22.9726626,17.5735671 26.9243142,16.7193961 C30.146761,16.0229802 33.5946653,15.3288888 36.8799269,15.9983407 C38.2507952,16.2777439 40.2531906,16.8545262 40.7483373,18.2876491 C32.4148523,19.806933 29.141885,30.174139 31.491221,37.7846601 C32.7591897,41.8923362 40.381124,46.6941661 43.3446324,44.5346988 C45.2221002,43.1666141 44.0822842,41.3705666 43.3446324,40.184924 C41.9319899,37.9143664 41.4486689,34.9977567 44.0626258,33.4169515 C46.3173556,32.0535632 48.6880486,35.2912486 48.7328944,35.2876844 C49.3525957,35.2385603 54.7073534,32.1922904 58.396684,27.7470099 C62.0362223,27.9640345 62.5883929,25.5500165 61.7193425,23.5758035 C60.850292,21.6015904 55.4259587,19.1170256 52.5016136,18.6343074 Z" id="hair" fill="#191847"></path>
                            </g>
                            <g id="Bottom/Standing/Jogging" transform="translate(115.810732, 199.665552) scale(-1, 1) translate(-115.810732, -199.665552) translate(15.621465, 119.732441)">
                                <polygon id="Leg" fill="#997659" points="86.6666667 0 136.204275 83.164458 173.34323 153.472997 181.342631 153.472997 119.115792 3.40778511e-13"></polygon>
                                <g id="Accessories/Shoe/Flat-Sneaker" transform="translate(166.666667, 133.221757)" fill="#E4E4E4">
                                    <path d="M1.54911379,17.8400258 C0.964458695,19.5117448 0.672131148,20.7888455 0.672131148,21.6713278 C0.672131148,22.888546 0.874048892,24.6647701 1.27788438,27 C2.68394144,27 15.320413,27 39.1872991,27 C40.1724304,23.7292924 39.6037555,21.9635426 37.4812744,21.7027506 C35.3587932,21.4419587 33.5956121,21.2064844 32.191731,20.9963278 L14.8821042,13.2466727 C14.3780324,13.0209958 13.7864542,13.2466795 13.5607773,13.7507513 C13.5564964,13.7603131 13.552366,13.7699416 13.5483877,13.7796332 L12.5441268,16.2261192 C10.5792644,17.1467902 8.98260972,17.6071257 7.75416273,17.6071257 C6.87349081,17.6071257 5.69674792,17.2919518 4.22393406,16.6616041 L4.22393946,16.6615915 C3.20845881,16.2269772 2.03292459,16.6978624 1.5983103,17.713343 C1.58048111,17.7550011 1.5640728,17.7972531 1.54911379,17.8400258 Z" id="shoe"></path>
                                </g>
                                <path d="M163.028704,142.214486 L178.455409,137.528294 C171.696549,117.23841 163.412607,94.9101361 153.603583,70.5434731 C143.794558,46.1768101 133.260031,22.662319 122,2.84217094e-14 L78.4293821,2.84217094e-14 C90.9481147,28.666793 104.21965,54.7142542 118.243988,78.1423837 C132.268326,101.570513 147.196565,122.927881 163.028704,142.214486 Z" id="Pant" fill="#DB2721"></path>
                                <path d="M83.4110853,2.84217094e-14 C78.7356655,29.2245616 69.7180607,66.562322 68.867042,67.7145764 C68.2996961,68.482746 47.8751009,75.3554471 7.59325623,88.3326796 L9.32122345,95.4161929 C57.3572287,88.4564192 82.6681069,83.0567404 85.2538579,79.2171565 C89.1324845,73.4577808 108.49899,27.9585854 116,2.84217094e-14 L83.4110853,2.84217094e-14 Z" id="Leg" fill="#B28B67"></path>
                                <path d="M21.7530052,82.2095244 L24.7966313,93.6180346 C60.7247644,96.7823401 82.7387252,94.4959306 90.8385135,86.7588059 C98.9383018,79.0216813 108.16967,50.1020793 118.532617,-1.13686838e-13 L76.9854306,-1.13686838e-13 C70.4197112,41.0268614 66.7490468,62.4014232 65.9734372,64.1236854 C65.1978277,65.8459476 50.4576837,71.8745606 21.7530052,82.2095244 Z" id="Pant" fill="#FF4133"></path>
                                <g id="Accessories/Shoe/Flat-Sneaker" transform="translate(16.333333, 103.096234) rotate(80.000000) translate(-16.333333, -103.096234) translate(-4.000000, 89.707113)" fill="#E4E4E4">
                                    <path d="M1.54911379,17.8400258 C0.964458695,19.5117448 0.672131148,20.7888455 0.672131148,21.6713278 C0.672131148,22.888546 0.874048892,24.6647701 1.27788438,27 C2.68394144,27 15.320413,27 39.1872991,27 C40.1724304,23.7292924 39.6037555,21.9635426 37.4812744,21.7027506 C35.3587932,21.4419587 33.5956121,21.2064844 32.191731,20.9963278 L14.8821042,13.2466727 C14.3780324,13.0209958 13.7864542,13.2466795 13.5607773,13.7507513 C13.5564964,13.7603131 13.552366,13.7699416 13.5483877,13.7796332 L12.5441268,16.2261192 C10.5792644,17.1467902 8.98260972,17.6071257 7.75416273,17.6071257 C6.87349081,17.6071257 5.69674792,17.2919518 4.22393406,16.6616041 L4.22393946,16.6615915 C3.20845881,16.2269772 2.03292459,16.6978624 1.5983103,17.713343 C1.58048111,17.7550011 1.5640728,17.7972531 1.54911379,17.8400258 Z" id="shoe"></path>
                                </g>
                            </g>
                            <g id="Body/Long-Sleeve" transform="translate(103.123897, 120.508941) scale(-1, 1) rotate(21.000000) translate(-103.123897, -120.508941) translate(17.629056, 57.967135)">
                                <path d="M128.25,43.6569451 L154.623327,40.0569284 C159.899063,37.1203385 164.752483,35.1323186 169.183589,34.0928685 C170.430549,34.0564348 172.414221,34.5100625 169.459099,36.9753989 C166.503977,39.4407353 163.505589,42.1679122 164.032102,43.4836191 C164.558615,44.7993261 167.306841,44.309795 167.762114,46.3334642 C168.065629,47.682577 163.605425,47.9017944 154.381502,46.9911164 L132.981806,55.4812834 L128.25,43.6569451 Z M45.4016969,49.7658312 L60.0284704,49.8207641 C43.9898163,85.9396187 35.6270133,104.850878 34.9400613,106.554543 C33.3944194,110.387789 36.6652056,116.225757 38.0639236,119.363036 C33.5083457,121.402988 33.9937473,113.848214 28.2470083,116.523725 C23.0016515,118.965806 19.0115216,123.390695 12.9512696,119.648644 C12.2061972,119.188581 11.3897193,117.45636 13.3624332,116.102721 C18.2771829,112.730312 25.359635,106.82799 26.3165858,104.885194 C27.6215592,102.235846 33.9832629,83.862725 45.4016969,49.7658312 Z" id="Skin" fill="#997659"></path>
                                <path d="M82.4742586,6.46126841 L93.9495062,6.22370683 C98.984811,31.4162862 115.695121,46.1452234 149.485126,37.7077107 L156.903566,70.0684158 C125.239252,77.012443 96.0291282,66.6384272 87.233317,32.4008459 C84.9563594,23.5378177 82.9609044,14.2813794 82.4742586,6.46126841 Z" id="Clothes-Back" fill="#AFB9C5" transform="translate(119.688913, 39.165214) rotate(5.000000) translate(-119.688913, -39.165214) "></path>
                                <path d="M79.8161314,0.0106547818 L97.1678139,3.98748434 C97.1678139,33.853225 106.674626,52.9080608 111.550781,74.8663102 L64.6885346,74.8663102 C64.028398,82.4538092 63.623014,90.2523832 63.41177,98.2620321 L28.3229676,98.2620321 C36.274287,55.9251092 53.0568321,23.1710985 78.670603,0 L79.8070054,0 L79.8161314,0.0106547818 Z" id="Clothes" fill="#C5CFD6"></path>
                                <path d="M72.0821466,32.2588565 C70.8744658,50.8693374 71.5847374,65.0718219 74.2129615,74.8663102 L64.6885346,74.8663102 C65.9962633,59.8354961 68.3037302,45.6330139 72.0821446,32.2588636 Z" id="Shade" fill-opacity="0.1" fill="#000000"></path>
                            </g>
                        </g>
                        <g id="Group" transform="translate(0.000000, 127.000000)">
                            <polygon id="Path" fill="#2F2E41" fill-rule="nonzero" points="109.234497 134.951467 22.5582316 134.951467 22.5582316 134.325425 108.610743 134.325425 108.610743 103.953383 29.844886 103.953383 26.0185322 95.947913 26.5807899 95.6769835 30.237295 103.326974 109.234497 103.326974"></polygon>
                            <ellipse id="Oval" fill="#1F263E" cx="34.0942179" cy="143.718632" rx="6.54749421" ry="6.5753633"></ellipse>
                            <ellipse id="Oval" fill="#1F263E" cx="98.6337916" cy="143.718632" rx="6.54749421" ry="6.5753633"></ellipse>
                            <ellipse id="Oval" fill="#1F263E" cx="174.709425" cy="4.07046387" rx="4.05321157" ry="4.07046387"></ellipse>
                            <path d="M118.504933,93.6206323 L21.0803761,93.6206323 L2.55795385e-13,24.4227869 L140.214514,24.4227869 L140.086937,24.8299274 L118.504933,93.6206323 Z" id="Shape" fill="#FF4133" fill-rule="nonzero"></path>
                            <polygon id="Path" fill="#F2F2F2" fill-rule="nonzero" points="113.191964 90.0198139 24.2646409 90.0198139 5.02282053 28.6496877 133.007821 28.6496877 132.891416 29.0110496"></polygon>
                            <polygon id="Path" fill="#2F2E41" fill-rule="nonzero" points="141.961481 18.240775 141.358591 18.0801289 145.473395 2.50480753 169.409246 2.50480753 169.409246 3.13121711 145.953291 3.13121711"></polygon>
                            <g id="Group-3" opacity="0.200000003" transform="translate(6.812235, 24.663141)" fill="#111111" fill-rule="nonzero">
                                <rect id="Rectangle" x="-3.83693077e-13" y="20.7381691" width="126.395634" height="1"></rect>
                                <rect id="Rectangle" x="7.02841853" y="43.8094222" width="112.128865" height="1"></rect>
                                <rect id="Rectangle" x="62.9814099" y="0.0727479193" width="1" height="68.5716343"></rect>
                                <polygon id="Rectangle" transform="translate(89.596421, 34.358549) rotate(-86.249190) translate(-89.596421, -34.358549) " points="55.2385704 34.0562108 123.954444 34.0371988 123.954271 34.6608878 55.2383971 34.6798999"></polygon>
                                <polygon id="Rectangle" transform="translate(36.989959, 34.358560) rotate(-3.729000) translate(-36.989959, -34.358560) " points="36.6875652 0.000702119679 37.3112542 0.000529833456 37.2923521 68.716418 36.6686631 68.7165903"></polygon>
                            </g>
                        </g>
                    </g>
                </g>
            </g>
        </g>
    </g>
</svg>